/* XPM */
static char *_7c28dbdd7e54bb7d4fc2c93bc4b8433DK7zlcnC8YeJFY19[] = {
/* columns rows colors chars-per-pixel */
"64 64 11 1 ",
"  c black",
". c #423728",
"X c #453345",
"o c #614961",
"O c #967544",
"+ c #DB9D5A",
"@ c #FFF25E",
"# c #857C85",
"$ c #9A8FA6",
"% c #A59BB0",
"& c #C8BAD9",
/* pixels */
"###########$#X##################%X############%%X%%%############",
"###########$#X#################%%X############%%X#%%%###########",
"##########$$XX%####%%%########%%oX###########%%XXX&&%###########",
"$$$#######$#Xo%####%%%######%%%XXX#########%%%XXoo&&&%%%%%######",
"#$#$#####$$$XX%%%###%%%#####%XXoX####%%%%%%%XXX#XXo#&&&%%%######",
"$#$#$$%%%$$XoX%%%%#########%%XXoX#########XXXo##XooXX&&&&%%#####",
"#$##$$%$$#XoooXX%%########%%XXoXX######%%%%%%%%%XXoXXXX%%#%#####",
"##oXoo#XXXooXooo%%%%%##%%%%%oXXX######%%%%%%%%%%%#XXooXXXXXooXXo",
"###$$$%%$%%%#XXXXXXoo##%oooXXXX################%%%%XXoXooo%%%%%#",
"#$$$$$%%%#%%##%%%%$$#XXXXXXX#####################%%#XXooX%%#%###",
"####%%%########%%%$%%%$%%%########################%%%XXX%%######",
"####%%%$##############$#$%%$#################%#%####%%#%%#######",
"####%%$#%%###############$%%X######%%##%#%#%########%%%#########",
"##$$%#%%##################%%%X###########%##%%%%###%%%%#########",
"###$#%%$##################$%%XX###%%%%%#%%%%%%%#%%#%%%%##%%%%###",
"###########################$&%X%%%%%%%%%%%%%%#%%####%%%%%%XX####",
"#######################      &XXXXXXXXX%%&&%%#%%%%#XXXXXX#######",
"##o####################      %XXXoXoXoXXo#&&&&%%%oXX##%%%#######",
"##o$##############     @@@@@@     oXoXoXXXX%%%#Xoo%%%%##########",
"##X$##############     @@@@@@     XXXXXXXXXXXXXo#%%#############",
"##X$$###########   +++.@@@@@@@@@@      X%%%%&%###%##############",
"##XX$$$#########  +++++.@@@@@@@@@      #%%#%&&&&#%%#############",
"###XX$%%%%%%$$$%  +++++.@@@@@@@@@@@@@@@######%&&%##%############",
"###XX#$$$%      @.+++++.@@@@@@@@@@@@@@@    ##%&&%##%%###########",
"###XXXXXXX      @.+++..@@@@@@@@@@@@@@@@    %%%%&&oX%%###########",
"##XXoo    @@@@@@@@...@@@@@@@@@@@@@@@@@@@@@@  ##%&&X#%%#########X",
"#XXoXX    @@@@@@@@@@@@@@@@@@@@@@@@@@@@@@@@@  ##%%%oXX%%%%%%%%%oX",
"XXoo  ++++       @@@@@@@@@@@@@@@@@@@@@@@@@  +.#%%#XoXXXXXXXXXXXX",
"XXXX  ++++       @@@@@@@@@@@@@@@@@@@@@@@@@  ++..#o   ##########X",
"##    +++++++++++     @@@@@@@@@@@@@@@@@@@@@  ++.. @@@  ########o",
"##    +++++++++++     @@@@@@@@@@@@@@@@@@@@@  +++  @@@  ##o%%####",
"##  ++++++++++++++++++  @@@@@@@@@@@@@@@@@@@@@   @@@@@  ##X######",
"##  ++++....++++++++++OO@@@@@@@@@@@@@@@@@@@@@   @@@@@@@     ####",
"##  +++.OOOO++++++++++OOOOO      @@@@@@@@@@@@@@@@@@@@@@     ####",
"##  ++.OOOOOO.++++++++.OOOO      @@@@@@@@@@@@@@@@@@@@@@@@@@    #",
"##  ++.OOOOOO.++++++++...OO++++  @@@@@@@@@@@@@@@@@@@@@@@@@@    #",
"##  ++.OOOOOO.+++++++++++++++++  @@@@@@@@@@@@@@@@@@@@@@@@@@@@..#",
"    +++.OOOO.++++++++++++++++++    @@@@@@@@@@@@@@@@@@@@@@@@@.+.#",
"  ++++++....+++++++++++++++++++++      @@@@@@@@@@@@@@@@@@@..++..",
"  +++++++++++++++++++++++++++++++      @@@@@@@@@@@@@@@@@@@.++++.",
"  +++++++++++++++++++++++++++++++++++++  @@@@@@@@@@@@@@@@@.++++.",
"  ++++++++++++++++++      +++++++++++++  @@@@@@@@@@@@@@@@@@.+++.",
"  ++++++++++++++++++      +++++++++++++  @@@@@@@@@@@@@@@@@@@.++.",
"  +++++++..+++++++  ....OO  +++++++++++++     @@@@@@@@@@@@@@@...",
"  ++++++.OO.++++++  .OOOOO  +++++++++++++     @@@@@@@@@@@@@@@  #",
"  ++++++.OO.++++++  .OOOOO  ++++++++++++++++++     @@@@@@@@@@  #",
"  ++++++.OO.++++++  .OOOOOOO  ++++++++++++++++     @@@@@@@@  ###",
"  +++++++..+++++  OOOOOOOOOO  ++++++++++++++  OOOOO  @@@@@@  ###",
"  ++++++++++++++  OO   OOOOO  +++++     ++++  OOOOO        #####",
"  ++++++++++++++  OO       O  +++++     ++++  OOOOO        #####",
"##                   &&&oo         ####                #########",
"##                   &&%%#         ####              %%#########",
"###############%#X&&###%%###oXX##%##%#%####%%##%%%%Xo%%%########",
"##############%%X%&#%%#######oXX####%%%##%####%%%%%XX%%%#%######",
"##%%##########%#X%%#%#########XXXXXo##%%%#%%%%%%%%#XXX%%%%%%%%%#",
"Xo%%%%########%%X%%############XooooXo#%%%%%%%%%%XXXXXX%%%%%XXXX",
"oXX#%%%%%####%%#X%###%#########XXoXoXoooooooXXXXXXooXXXXXXXXo#%#",
"X##o%%%%%%%%%%%o##############%#Xooo#XXXX%%#%%%ooXoXoXXXXX#%%%%#",
"####oo##%%%%%%X##############%%#oXXX%%%##%%%%%%%%oXXXooXXX%%#%##",
"######oo#####oX##############%%%%X#%%######%%%%%%#XoXXXX#%%#%###",
"###########ooo##############%%%#%X#######%%###%%%%XXXX%%%###%###",
"##########################%%%%##%%#########%%#%%%%%oX###%%%%####",
"###########%%%#############%#%##%%##############%%%XX#%#########",
"###########%%%#############%%####o##############%%%oX###########"
};
