/* XPM */
static char *dde3ef93b7f54e83ed742de09457dfe2rnG2XzozYeU84NZb[] = {
/* columns rows colors chars-per-pixel */
"64 64 6 1 ",
"  c #453345",
". c #614961",
"X c #857C85",
"o c #9A8FA6",
"O c #A59BB0",
"+ c #C8BAD9",
/* pixels */
"XXXXXXXXXXXoX XXXXXXXXXXXXXXXXXXO XXXXXXXXXXXXOO OOOXXXXXXXXXXXX",
"XXXXXXXXXXXoX XXXXXXXXXXXXXXXXXOO XXXXXXXXXXXXOO XOOOXXXXXXXXXXX",
"XXXXXXXXXXoo  OXXXXOOOXXXXXXXXOO. XXXXXXXXXXXOO   ++OXXXXXXXXXXX",
"oooXXXXXXXoX .OXXXXOOOXXXXXXOOO   XXXXXXXXXOOO  ..+++OOOOOXXXXXX",
"XoXoXXXXXooo  OOOXXXOOOXXXXXO  . XXXXOOOOOOO   X  .X+++OOOXXXXXX",
"oXoXooOOOoo . OOOOXXXXXXXXXOO  . XXXXXXXXX   .XX ..  ++++OOXXXXX",
"XoXXooOooX ...  OOXXXXXXXXOO  .  XXXXXXOOOOOOOOO  .    OOXOXXXXX",
"XX. ..X   .. ...OOOOOXXOOOOO.   XXXXXXOOOOOOOOOOOX  ..     ..  .",
"XXXoooOOoOOOX      ..XXO...    XXXXXXXXXXXXXXXXOOOO  . ...OOOOOX",
"XoooooOOOXOOXXOOOOooX       XXXXXXXXXXXXXXXXXXXXXOOX  .. OOXOXXX",
"XXXXOOOXXXXXXXXOOOoOOOoOOOXXXXXXXXXXXXXXXXXXXXXXXXOOO   OOXXXXXX",
"XXXXOOOoXXXXXXXXXXXXXXoXoOOoXXXXXXXXXXXXXXXXXOXOXXXXOOXOOXXXXXXX",
"XXXXOOoXOOXXXXXXXXXXXXXXXoOO XXXXXXOOXXOXOXOXXXXXXXXOOOXXXXXXXXX",
"XXooOXOOXXXXXXXXXXXXXXXXXXOOO XXXXXXXXXXXOXXOOOOXXXOOOOXXXXXXXXX",
"XXXoXOOoXXXXXXXXXXXXXXXXXXoOO  XXXOOOOOXOOOOOOOXOOXOOOOXXOOOOXXX",
"XXXXXXXXXXXXXXXXXXXXXXXXXXXo+O OOOOOOOOOOOOOOXOOXXXXOOOOOO  XXXX",
"XXXXXXXXXXXXXXXXXXXXXXXXXXoX++         OO++OOXOOOOX      XXXXXXX",
"XX.XXXXXXXXXXXXXXXXXXXXXXXXX+O   . . .  .X++++OOO.  XXOOOXXXXXXX",
"XX.oXXXXXXXXXXXXXXXXXXXXXooo++  . . . .    OOOX ..OOOOXXXXXXXXXX",
"XX oXXXXXXXXXXXXXXOooXXoooo+++  .              .XOOXXXXXXXXXXXXX",
"XX ooXXXXXXXXXXXXXoo+OXo+O+++o  .       OOOO+OXXXOXXXXXXXXXXXXXX",
"XX  oooXXXXXXXXXXXXo++++++++oX..  XXOOXXOOXO++++XOOXXXXXXXXXXXXX",
"XXX  oOOOOOOoooOooooOO++++++   . XXXXXXXXXXXXO++OXXOXXXXXXXXXXXX",
"XXX  XoooOOoOOO++O++++oXooXX ...XXXXXXXXXXXXXO++OXXOOXXXXXXXXXXX",
"XXX       .. OOO++++++X      . XXXXXXXXXXXXOOOO++. OOXXXXXXXXXXX",
"XX  .... ........         .. XXXXXXXXXXXXXXOOXXO++ XOOXXXXXXXXX ",
"X  .    OOO+++++........    XXXXXXXXXXXXXOOOXXXOOO.  OOOOOOOOO. ",
"  ..   OOOOO++++  XXX    XXXXXXXXXOXXXXXXOOOXXXOOX .            ",
"     OOOXXOOOOXO. XXXXXXXXOXXXXXOOXXXXXXXXXXXXOOX. . XXXXXXXXXX ",
"XXXXXXXXXXXXXXXO. XXXXXXXOXXOOOXXXXXXXXXXXXXXX..    .XXXXXXXXXX.",
"XXXXXXXXXXXXXXXOO XXXXXXXXOOOOXXXXXXXXXXXX...    XXXXXXXX.OOXXXX",
"XXXXXXXXXXXXXXXXX OXXXXOOXXXOXXXXXXXXXXXX     XXXXXXXXXXX XXXXXX",
"XXXXXXXXXXXXXXXXX OOXXOOOOXXOXXXOOO...XXXOXXXXXXXXXXXXXX. OXXXXX",
"XXXXXXXXXXXXXXXXX  OOXXXXXOOOOOO+OX..OOOOOXXXXXOXXXXXX..  OOXXXX",
"XXXXXXXXXXXXXXXXXX .OOO++O+++++++X.OOOOOXOOXOOXOXXXXXXX. OOXXXXX",
"XXXXXXXXXXXXXXXXXX .OOOOO++OOOOOX.O++OOOXOXOXOOXXXXXXXX. OOXXXXX",
"XXXXXXXXXXXXXXXXX  ...OOO        .++++OXXOXXXXXXOXXXXXX. OOXOXXX",
"OOXXXXXXXXXXXXX   ...     ... ..  O++OXXOXOOXOXXOXXXXXXX OOOXXXX",
"OOOOXXXOXOOOX   ..   OO OOOOXXX.  O++OXOOXXXOXXOXXXXXXXX  OOOXXX",
"OOOOOOOOOOO   ..  OOOOOOOOOOOOOXX O++OOOOOOXOXXXXXXXXXXXX  OOXXX",
"OOO         ..   OOOOOOOOXXXXXXXX  OO++++XXXXXXXXXXXXXXX.   OOOX",
".  . ..  .      OOOOOOXXXXXXXXXXX   XO+O+++OOXXXXXXXXX..     .OO",
". . .. .  .   OOOXXXXXXXXXXXXXXXX     OO+OOOOOOOOOXXX..   XOXX..",
"XX            O+XXXXXXXXXXXXXXXXXX        OOOOOOOO ..   XXOXOXXX",
"XXXXXXXOOX   XO++OXXXXXXXXXXXXXXXXX   ....            XXOOXXOXOX",
"XXXXXXXOOXX  OO+++OXXXXXXXXXXX XXXXXXXXXXX...   .     OOXXOXXXOX",
"XXXOOOOOOOX...  O+OXXXXXXXXX  XXXXXXXXXXXXXXXX..    XXXXXXOXXXXX",
"XXXXXXOXXXXXXX  OOOOOOOOOOXX XXXXXXXXXXXXXXXXXXX... XXXXXXXXXXXX",
"XXXXXXXXXXXXXX.   OOOOOOOXX XXXXXXXXXXXXXXXXXXXX O. OOXXXXXXXXXX",
"XXXXXXXXXXXXXXX         X . XXXXXXXXXXXXXXXXXXXXOO .OOXXXXXXXXXX",
"XXXXXXXXXXXXXXXXX O+++++..   XXXXXXXXXXXXOOXXXXXOOO.OOXXXXXXXXXX",
"XXXXXXXXXOXXXXXXX +++++OOXX.  XXXXXXXXXXOXXXXXXXOOO OOOXXXXXXXXX",
"XXXXXXXXXXXXXXXOX ++XXXOOXXX.  XXOXXOXOXXXXOOXXOOOO .OOOXXXXXXXX",
"XXXXXXXXXXXXXXOO O+XOOXXXXXXX.  XXXXOOOXXOXXXXOOOOO  OOOXOXXXXXX",
"XXOOXXXXXXXXXXOX OOXOXXXXXXXXX     .XXOOOXOOOOOOOOX   OOOOOOOOOX",
" .OOOOXXXXXXXXOO OOXXXXXXXXXXXX .... .XOOOOOOOOOO      OOOOO    ",
".  XOOOOOXXXXOOX OXXXOXXXXXXXXX  . . .......      ..        .XOX",
" XX.OOOOOOOOOOO.XXXXXXXXXXXXXXOX ...X    OOXOOO.. . .     XOOOOX",
"XXXX..XXOOOOOO XXXXXXXXXXXXXXOOX.   OOOXXOOOOOOOO.   ..   OOXOXX",
"XXXXXX..XXXXX. XXXXXXXXXXXXXXOOOO XOOXXXXXXOOOOOOX .    XOOXOXXX",
"XXXXXXXXXXX...XXXXXXXXXXXXXXOOOXO XXXXXXXOOXXXOOOO    OOOXXXOXXX",
"XXXXXXXXXXXXXXXXXXXXXXXXXXOOOOXXOOXXXXXXXXXOOXOOOOO. XXXOOOOXXXX",
"XXXXXXXXXXXOOOXXXXXXXXXXXXXOXOXXOOXXXXXXXXXXXXXXOOO  XOXXXXXXXXX",
"XXXXXXXXXXXOOOXXXXXXXXXXXXXOOXXXX.XXXXXXXXXXXXXXOOO. XXXXXXXXXXX"
};
