/* XPM */
static char *_83e99ba294d409bfd6fec9adeddc8833UNccfGpZEgt5ZOl[] = {
/* columns rows colors chars-per-pixel */
"64 64 16 1 ",
"  c black",
". c #453345",
"X c #614961",
"o c #736A75",
"O c #857C85",
"+ c #9A8FA6",
"@ c #A097A3",
"# c #A59BB0",
"$ c gray73",
"% c #C8BAD9",
"& c #EBBCD0",
"* c #E0B8D9",
"= c #F2C6DC",
"- c #EBD9E1",
"; c #F7D2E1",
": c #FFDBED",
/* pixels */
"OOO OOOOOOO+O.OOOOOOOOOOOOOOOOOO#.OOOOOOOOOOOO##.###OOOOOOOOOOOO",
"OO :  OOOOO+O.OOOOOOOOOOOOOOOOO##.OOOOOOOOOOOO##.O###OOOOOOOOOOO",
"OO :  OOOO++..#OOOO###OOOOOOOO##X.OOOOOOOOOOO##...%%#OOOOOOOOOOO",
"++ ::    O+O.X#OOOO###OOOOOO###...OOOOOOOOO###..XX%%%#####OOOOOO",
"O+ ::::  +++..###OOO###OOOOO#..X.OOOO#######...O..XO%%%###OOOOOO",
"+O   &&:   .X.####OOOOOOOOO##..X.OOOOOOOOO...XOO.XX..%%%%##OOOOO",
"O+OO  &&   XXX..##OOOOOOOO##..X..OOOOOO#########..X....##O#OOOOO",
"OOX.  &&&& X.XXX#####OO#####X...OOOOOO###########O..XX.....XX..X",
"OOO+    &&    .....XXOO#XXX....OOOOOOOOOOOOOOOO####..X.XXX#####O",
"O+++++  &&&:  ####++O.......OOOOOOOOOOOOOOOOOOOOO##O..XX.##O#OOO",
"OOOO###O  &:  O###+###+###OOOOOOOOOOOOOOOOOOOOOOOO###...##OOOOOO",
"OOOO###+  &:  OOOOOOOO+O+##+OOOOOOOOOOOOOOOOO#O#OOOO##O##OOOOOOO",
"OOOO##+O  &:  OOOOOOOOOOO+##.OOOOOO##OO#O#O#OOOOOOOO###OOOOOOOOO",
"OO++#O##  &:  OOOOOOOOOOOO###.OOOOOOOOOOO#OO####OOO####OOOOOOOOO",
"OOO+O##+  &:  OOOOOOOOOOOO+##..OOO#####O#######O##O####OO####OOO",
"OOOOOO  &&&:  OOOOOOOOOOOOO+%#.##############O##OOOO######..OOOO",
"OOOOOO  &&&:  OOOOOOOOOOOO+O%%.........##%%##O####O......OOOOOOO",
"OOXOOO  &&  OOOOOOOOOOOOOOOO%#...X.X.X..XO%%%%###X..OO###OOOOOOO",
"OOX   &&::  OOOOOOOOOOOOO+++%%..X.X.X.X....###O.XX####OOOOOOOOOO",
"OO.   &&::  OOOOOO#++OO++++%%%..X...........     ##OOOO      OOO",
"O  &&&::  OOOOOOOO++%#O+%#%%%+..X.......####     #OOOOO      OOO",
"O  &&&::  OOOOOOOOO+%%%%%%%%+OXX..OO##OO##  &&&&&      &&&&  OOO",
"   ::   ####+++#++++##%%               OOO  &;;;&      &;;&  OOO",
" :&::   +##+###%%#%%%%+O               $OO  &;;;&$$$$  &;;;  OOO",
" :&  .....XX.###%%      $$$$$$$$$$$$$$$     &;;;&@@@@  &;;;  OOO",
" :&  XXX.XXXXXXXX.      @@@@@@@@@@@@@@@     &==  @@@@@   &&OOOO.",
" :&  ...###%%%    $$$$$@@@@@@@@@@@@@@@@@@@@@     @@@@@     ###X.",
" :&  ..#####%%    @@@@@@@@@@@@@@@@@@@@@@@@@@   @@@@@@@@@$  .....",
" :&   ##OO##  $$$$@@@@@@@@@@@@@@@@@@@@@@@@@@@@@@@@@@@@@@$$   OO.",
"  &&&:  OOOO  $$$$@@@@@@@@@@@@@@@@@@@@@@@@@@@@@@@@@@@@@@@$   OOX",
"    &:  OOOO  @@@@@@@@@@@@@@@@@@@@@@@@@@@@@@@@@@@@@@@@@@@@@@    ",
"OO  &:  OOOO  @@@@@@@@@@@@@@@@@@@@@@@@@@@@@@@@@@@@@@@@@@@@@@    ",
"OO  &:  OO  @@@@@@@@@@@@@@@@@@@@@@@@@@@@@@@@@@@@@@@   $@@@@@$$$ ",
"OO  &&:  O  @@@@@@@@@@@@@@@@@@@@@@@@@@@@@@@@@@@@@@@   $@@@@@@@@ ",
"OO   &:  O  @@@@@@@@@@@@@@@@@@@@@@@@@@@@@@@@@@@@@@@   $@@@@@*** ",
"OOO  &:  O  @@@@@@@@@@@@@@@@@@@@@@@@@@@@@@@@@@@@oo@ooo@@@@@@*;; ",
"OOO  &&  O  @@@@@@@@@@@@@@@@@@@@@@@@@@@@@@@@@@@@o  ooo@@@@@@*;; ",
"##O   &&&  @@@@@@@@@@@@@@@@@@@@@@@@@@@@@@@@@@@@@o  ooo@@@@@@-;; ",
"####O &&&  @@@@@@ooo@@@@@@@@@@@@@@@@@@@@@@oo@@@@@oo            O",
"#####      @@@@@@ooo@@@@@@@@@@@@@@@@@@@@@@oo@@@@@oo            O",
"###..      @@@@@@ooo@@@@@@@@@@@@@@@@@@@@@@oo@@@@oo oooOOX...###O",
"X..X.XX  $$@@@@@@ooo@@@@@@@@@@@@@@@@@@@@@@oo@@oo  ooooXX.....X##",
"X.X.XX.  @@@@@@@@ooooooooooooooooooooooooo@@@@oo  ooooo...O#OOXX",
"OO.....  @@@@@@@@ooooooooooooooooooooooooo@@@@oo  ooooo.OO#O#OOO",
"OOOOOOO  @@@@@@@$                       @@@oo       oo  ##OO#O#O",
"OOOOO  @@@@@@@@$$                       @@@oo       oo  OO#OOO#O",
"OOO##  @@@@$       oooo  OOO..OOOOOOOO  @@@  OXX..  oo  OO#OOOOO",
"OOOOO  @@@@$       oooo  #OO.OOOOOOOOO  @@@  OOOXX  oo  OOOOOOOO",
"OOOOO  @@$$$  X...#  oo  OO.OOOOOOOOOO  @@@  OOO.#X  ooo  OOOOOO",
"OOOOO  ooo  OOO....  oo  .X.OOOOOOOOOO  ooo  OOO##.  ooo  OOOOOO",
"OOOOO  ooo  OOOOO.#  oo  X...OOOOOOOOO  ooo  OOO###  ooo  OOOOOO",
"OOOOOOOOO#OOOOOOO.%%%%%##OOX..OOOOOOOOOO#OOOOOOO###.###OOOOOOOOO",
"OOOOOOOOOOOOOOO#O.%%OOO##OOOX..OO#OO#O#OOOO##OO####.X###OOOOOOOO",
"OOOOOOOOOOOOOO##.#%O##OOOOOOOX..OOOO###OO#OOOO#####..###O#OOOOOO",
"OO##OOOOOOOOOO#O.##O#OOOOOOOOO.....XOO###O########O...#########O",
".X####OOOOOOOO##.##OOOOOOOOOOOO.XXXX.XO##########......#####....",
"X..O#####OOOO##O.#OOO#OOOOOOOOO..X.X.XXXXXXX......XX........XO#O",
".OOX###########XOOOOOOOOOOOOOO#O.XXXO....##O###XX.X.X.....O####O",
"OOOOXXOO######.OOOOOOOOOOOOOO##OX...###OO########X...XX...##O#OO",
"OOOOOOXXOOOOOX.OOOOOOOOOOOOOO####.O##OOOOOO######O.X....O##O#OOO",
"OOOOOOOOOOOXXXOOOOOOOOOOOOOO###O#.OOOOOOO##OOO####....###OOO#OOO",
"OOOOOOOOOOOOOOOOOOOOOOOOOO####OO##OOOOOOOOO##O#####X.OOO####OOOO",
"OOOOOOOOOOO###OOOOOOOOOOOOO#O#OO##OOOOOOOOOOOOOO###..O#OOOOOOOOO",
"OOOOOOOOOOO###OOOOOOOOOOOOO##OOOOXOOOOOOOOOOOOOO###X.OOOOOOOOOOO"
};
