/* XPM */
static char *e1ef046990b840588ca07532355004d4vg0KCH0exbyjDmxZ[] = {
/* columns rows colors chars-per-pixel */
"64 64 21 1 ",
"  c black",
". c gray10",
"X c #453345",
"o c gray30",
"O c #58515B",
"+ c #614961",
"@ c #706972",
"# c #7E7482",
"$ c #857C85",
"% c #908892",
"& c #98909B",
"* c #A48391",
"= c #9A8FA6",
"- c #A097A3",
"; c #A29BA5",
": c #A59BB0",
"> c #BDB6BF",
", c #C8BAD9",
"< c #EBBCD0",
"1 c #D0CCD2",
"2 c #F1D0DE",
/* pixels */
"$$$$$$$$$$$=$X$$$$$$$$$$$$$$$$$$:X$$$$$$$$$$$$::X:::$$$$$$$$$$$$",
"$$$$$$$$$$$=$X$$$$$$$$$$$$$$$$$::X$$$$$$$$$$$$::X$:::$$$$$$$$$$$",
"$$$$$$$$$$==XX:$$$$:::$$$$$$$$::+X$$$$$$$$$$$::XXX,,:$$$$$$$$$$$",
"===$$$$$$$=$X+:$$$$:::$$$$$$:::XXX$$$$$$$$$:::XX++,,,:::::$$$$$$",
"$=$=$$$$$===XX:::$$$:::$$$$$:XX+X$$$$:::::::XXX$XX+$,,,:::$$$$$$",
"=$=$==:::==X+X::::$$$$$$$$$::XX+X$$$$$$$ $XXX+$$X++XX,,,,::$$$$$",
"$=$$==:==$X+++XX::$$$$$$$$::XX+XX$$$$    :::::::XX+XXXX::$:$$$$$",
"$$+X++$XXX++X+++:::::$$:::::+XXX$$$$  2 :::::::::$XX++XXXXX++XX+",
"$$$===::=:::$XXXXXX++$$:+++XXXX$$$$  2  $$$$$$$::::XX+X+++:::::$",
"$=====:::$::$$::::==$XXXXXXX$$$$$$  2  $$$$$$$$$$::$XX++X::$:$$$",
"$$$$:::$$$$$$$$:::=:::=:::$$$$$$$$ 2* $$$$$$$$$$$$:::XXX::$$$$$$",
"$$$$:::=$$$$$$$$$$$$$$=$=::=$$$$$$ <  $$$$$$$:$:$$$$::$::$$$$$$$",
"$$$$::=$::$$$$$$$$$$$$$$$=::X$$$$ 2< $$:$:$:$$$$$$$$:::$$$$$$$$$",
"$$==:$::$$$$$$$$$$$$$$$$$$:::X$$$ 2* $$$$:$$::::$$$::::$$$$$$$$$",
"$$$=$::=$$$$$$$$$$$$$$$$$$=::XX$  < :::$:::::::$::$::::$$::::$$$",
"$$$$$$$$$$$$$$$$$$$$$$$$$$$=,:X: 2* :::::::::$::$$$$::::::XX$$$$",
"$$$$$$$$$$$$$$$$$$$$$$$$$$=$,,XX 2* XXX::,,::$::::$XXXXXX$$$$$$$",
"$$+$$$$$$$$$$$$$$$$$$$$$$$$$,:XX 2  X+XX+$,,,,:::+XX$$:::$$$$$$$",
"$$+=$$$$$$$$$$$$$$$$$$$$$===,,XX 2 X+X+XXXX:::$X++::::$$$$$$$$$$",
"$$X=$$$$$$$$$$$$$$:==$$====,,,XX 2 XXXXXXXXXXXX+$::$$$$$$$$$$$$$",
"$$X==$$$$$$$$$$$$$==,:$=,:,,,=   2 XXXXX::::,:$$$:$$$$$$$$$$$$$$",
"$$XX===$$$$$$$$$$$$=,,,,,,,,=$   < $::$$::$:,,,,$::$$$$$$$$$$$$$",
"$$$XX=::::::===:====::,,,,,,XX  2< $$$$$$$$$$:,,:$$:$$$$$$$$$$$$",
"$$$XX$===::=::      ,,=         2<    $$$      ,:$$::$$$$$$$$$$$",
"$$$XXXXXXX++X:           &;;;;  2< &.          ,,+X::$$$$$$$$$$$",
"$$XX++++X+++++           &####  2< #           :,,X$::$$$$$$$$$X",
"$XX+XXXX:::,  <<<<<*   &&&####  2< #&&   *<<<<<  :+XX:::::::::+X",
"XX++XXX:::::  <**** ##########  2<* ##### ****<  $X+XXXXXXXXXXXX",
"XXXXX:::$$::  <**** ##########  2<< ##### ****<  +X+X$$$$$$$$$$X",
"$$$$$$$$$$$$  <**** ##########  22<* #### ****<  XXX+$$$$$$$$$$+",
"$$$$$$$$$$$$  <**** ############ 2<*  ### ****<  $$$$$$$$+::$$$$",
"$$$$$$$$$$$$$$    * ############ 22<* ### *    $$$$$$$$$$X$$$$$$",
"$$$$$$$$$$$$$$    * OOOOOOOOOOOO  2<*  #O *    $$$$$$$$$+X:$$$$$",
"$$$$$$$$$$$$$$                    2<<          :$$$$$$++XX::$$$$",
"$$$$$$$$$$$$$$      --->>>>>>>>>>> 2<<  1      :$$$$$$$+X::$$$$$",
"$$$$$$$$$$$$$$     %->>>>>>>>>>>>> <2<* >-     $$$$$$$$+X::$$$$$",
"$$$$$$$$$$$$$$    %->>>>>>>>>>>>>>> 2<*  -%    $:$$$$$$+X::$:$$$",
"::$$$$$$$$$$$     -->>>>>>>>>>>>>>>  2<* >-     :$$$$$$$X:::$$$$",
"::::$$$:$:::$     -->--------------- 2<* >-     $$$$$$$$XX:::$$$",
":::::::::::XX     ->----------------  <* >-     $$$$$$$$$XX::$$$",
":::XXXXXXX  o>>--->>----------------- 2* >--->>>   $$$$$+XXX:::$",
"+XX+X++XX+   >----------------------- 2* ->---->   $$$++XXXXX+::",
"+X+X++X+XX   >----------------------- 2* -------   $$++XXX$:$$++",
"$$XXXXXXX    ----------------------- 2<* -------    +XXX$$:$:$$$",
"$$$$$$$::    ----------------------- 2<* -------    XX$$::$$:$:$",
"$$$$$$$::   -----------------------  <<* --------   XX::$$:$$$:$",
"$$$::::::   ----------------------  2<* ---------   $$$$$$:$$$$$",
"$$$$$$:$$   ---------------------- 2<*  ---------   $$$$$$$$$$$$",
"$$$$$$$$$   --------------------  2<*  ----------   ::$$$$$$$$$$",
"$$$$$$$$$ --------------------   2<*  ------------> ::$$$$$$$$$$",
"$$$$$$$$$ -------------------   2<*  -------------> ::$$$$$$$$$$",
"$$$$$$$$$ ------------------  <<<*  --------------> :::$$$$$$$$$",
"$$$$$$$$$ ----------------@  <<<** ---------------> +:::$$$$$$$$",
"$$$$$$$$$     ------------@ <<<<* --------------    X:::$:$$$$$$",
"$$::$$$$$$   >>--- @------@ **   @-------@ ---->    XX:::::::::$",
"X+::::$$$$   >>--- @-------@    ---------@ ---->    XXX:::::XXXX",
"+XX$:::::$   >>--- @@--------@@@---------@ ---->   +XXXXXXXX+$:$",
"X$$+::::::   >>--- @@@------------------@@ ---->   X+XXXXX$::::$",
"$$$$++$$::   >>---   @@@--------------@@   ---->   XX++XXX::$:$$",
"$$$$$$++$$   >----   @@@@@@@@@@@@@@@@@@@   --->>   +XXXX$::$:$$$",
"$$$$$$$$$$    --       @@@@@@@@@@@@@@@       ->    XXX:::$$$:$$$",
"$$$$$$$$$$                               $         +X$$$::::$$$$",
"$$$$$$$$$$                               $         XX$:$$$$$$$$$",
"$$$$$$$$$$$:       $$                   $$         +X$$$$$$$$$$$"
};
