/* XPM */
static char *_6e379bf24804855de126587f56553a6Ti66TkXOGF6P78hw[] = {
/* columns rows colors chars-per-pixel */
"64 64 16 1 ",
"  c black",
". c #453345",
"X c #614961",
"o c #736A75",
"O c #857C85",
"+ c #9A8FA6",
"@ c #A097A3",
"# c #A59BB0",
"$ c gray73",
"% c #C8BAD9",
"& c #EBBCD0",
"* c #E0B8D9",
"= c #F2C6DC",
"- c #EBD9E1",
"; c #F7D2E1",
": c #FFDBED",
/* pixels */
"OOOOOOOOOOO+O.OOOOOOOOOOOOOOOOOO#.OOOOOOOOOOOO##.###OOOOOOOO OOO",
"OOOOOOOOOOO+O.OOOOOOOOOOOOOOOOO##.OOOOOOOOOOOO##.O###OOOOO  : OO",
"OOOOOOOOOO++..#OOOO###OOOOOOOO##X.OOOOOOOOOOO##...%%#OOOOO  : OO",
"+++OOOOOOO+O.X#OOOO###OOOOOO###...OOOOOOOOO###..XX%%%##    :: OO",
"O+O+OOOOO+++..###OOO###OOOOO#..X.OOOO#######...O..XO%%%  :::: OO",
"+O+O++###++.X.####OOOOOOOOO##..X.OOOOOOOOO...XOO.XX..   :&&   OO",
"O+OO++#++O.XXX..##OOOOOOOO##..X..OOOOOO#########..X..   &&  OOOO",
"OOX.XXO...XX.XXX#####OO#####X...OOOOOO###########O..X &&&&  X..X",
"OOO+++##+###O......XXOO#XXX....OOOOOOOOOOOOOOOO###    &&    ###O",
"O+++++###O##OO####++O.......OOOOOOOOOOOOOOOOOOOOO#  :&&&  #O#OOO",
"OOOO###OOOOOOOO###+###+###OOOOOOOOOOOOOOOOOOOOOOOO  :&  ##OOOOOO",
"OOOO###+OOOOOOOOOOOOOO+O+##+OOOOOOOOOOOOOOOOO#O#OO  :&  #OOOOOOO",
"OOOO##+O##OOOOOOOOOOOOOOO+##.OOOOOO##OO#O#O#OOOOOO  :&  OOOOOOOO",
"OO++#O##OOOOOOOOOOOOOOOOOO###.OOOOOOOOOOO#OO####OO  :&  OOOOOOOO",
"OOO+O##+OOOOOOOOOOOOOOOOOO+##..OOO#####O#######O##  :&  O####OOO",
"OOOOOOOOOOOOOOOOOOOOOOOOOOO+%#.##############O##OO  :&&&  ..OOOO",
"OOOOOOOOOOOOOOOOOOOOOOOOOO+O%%.........##%%##O####  :&&&  OOOOOO",
"OOXOOOOOOOOOOOOOOOOOOOOOOOOO%#...X.X.X..XO%%%%###X..  &&  OOOOOO",
"OOX+OOOOOOOOOOOOOOOOOOOOO+++%%..X.X.X.X....###O.XX##  ::&&   OOO",
"OO.      OOOOOO     +OO++++%%%..X..............XO##O  ::&&   OOO",
"OO.      OOOOOO     %#O+%#%%%+..X.......####%#OOO#OOOO  ::&&&  O",
"OO.  &&&&      &&&&&  %%%%%%+OXX..OO##OO##O#%%%%O##OOO  ::&&&  O",
"OOO  &;;&      &;;;&  %%%               OOOOO#%%#OO#OOOO   ::   ",
"OOO  ;;;&  $$$$&;;;&  +O$               OOOOO#%%#OO##OOO   ::&: ",
"OOO  ;;;&  @@@@&;;;&     $$$$$$$$$$$$$$$      #%%X.##OOOOOO  &: ",
"OO..X&&   @@@@@  ==&     @@@@@@@@@@@@@@@      O#%%.O##OOOOO  &: ",
"O..X.     @@@@@     @@@@@@@@@@@@@@@@@@@@@$$$$$    X..######  &: ",
"..XX.  $@@@@@@@@@   @@@@@@@@@@@@@@@@@@@@@@@@@@    .X.......  &: ",
"...   $$@@@@@@@@@@@@@@@@@@@@@@@@@@@@@@@@@@@@@@$$$$  .OOOOO   &: ",
"OOO   $@@@@@@@@@@@@@@@@@@@@@@@@@@@@@@@@@@@@@@@$$$$  XOOO  :&&&  ",
"    @@@@@@@@@@@@@@@@@@@@@@@@@@@@@@@@@@@@@@@@@@@@@@  OOOO  :&    ",
"    @@@@@@@@@@@@@@@@@@@@@@@@@@@@@@@@@@@@@@@@@@@@@@  OOOO  :&  OO",
" $$$@@@@@$   @@@@@@@@@@@@@@@@@@@@@@@@@@@@@@@@@@@@@@@  OO  :&  OO",
" @@@@@@@@$   @@@@@@@@@@@@@@@@@@@@@@@@@@@@@@@@@@@@@@@  X  :&&  OO",
" ***@@@@@$   @@@@@@@@@@@@@@@@@@@@@@@@@@@@@@@@@@@@@@@  O  :&   OO",
" ;;*@@@@@@ooo@oo@@@@@@@@@@@@@@@@@@@@@@@@@@@@@@@@@@@@  O  :&  OOO",
" ;;*@@@@@@ooo  o@@@@@@@@@@@@@@@@@@@@@@@@@@@@@@@@@@@@  O  &&  OOO",
" ;;-@@@@@@ooo  o@@@@@@@@@@@@@@@@@@@@@@@@@@@@@@@@@@@@@  &&&   OOO",
"#            oo@@@@@oo@@@@@@@@@@@@@@@@@@@@@@ooo@@@@@@  &&& ##OOO",
"#            oo@@@@@oo@@@@@@@@@@@@@@@@@@@@@@ooo@@@@@@      ##OOO",
"###.......ooo oo@@@@oo@@@@@@@@@@@@@@@@@@@@@@ooo@@@@@@      .###O",
"X..X.XX..Xoooo  oo@@oo@@@@@@@@@@@@@@@@@@@@@@ooo@@@@@@$$  ....X##",
"X.X.XX.X.ooooo  oo@@@@ooooooooooooooooooooooooo@@@@@@@@  .O#OOXX",
"OO.......ooooo  oo@@@@ooooooooooooooooooooooooo@@@@@@@@  O#O#OOO",
"OOOOOOO#  oo       oo@@@                       $@@@@@@@  #OO#O#O",
"OOOOOOO#  oo       oo@@@                       $$@@@@@@@@  OOO#O",
"OOO#####  oo  ..#%#  @@@  OO..OOOOOOOOO  oooo       $@@@@  OOOOO",
"OOOOOO#O  oo  ..###  @@@  OO.OOOOOOOOOO  oooo       $@@@@  OOOOO",
"OOOOOO  ooo  OX...#  @@@  O.OOOOOOOOOOO  oo  OOO.#  $$$@@  OOOOO",
"OOOOOO  ooo  OO....  ooo  X.OOOOOOOOOOO  oo  OOO##.X  ooo  OOOOO",
"OOOOOO  ooo  OOOO.#  ooo  ...OOOOOOOOOO  oo  OOO###X  ooo  OOOOO",
"OOOOOOOOO#OOOOOOO.%%%%%##OOX..OOOOOOOOOO#OOOOOOO###.###OOOOOOOOO",
"OOOOOOOOOOOOOOO#O.%%OOO##OOOX..OO#OO#O#OOOO##OO####.X###OOOOOOOO",
"OOOOOOOOOOOOOO##.#%O##OOOOOOOX..OOOO###OO#OOOO#####..###O#OOOOOO",
"OO##OOOOOOOOOO#O.##O#OOOOOOOOO.....XOO###O########O...#########O",
".X####OOOOOOOO##.##OOOOOOOOOOOO.XXXX.XO##########......#####....",
"X..O#####OOOO##O.#OOO#OOOOOOOOO..X.X.XXXXXXX......XX........XO#O",
".OOX###########XOOOOOOOOOOOOOO#O.XXXO....##O###XX.X.X.....O####O",
"OOOOXXOO######.OOOOOOOOOOOOOO##OX...###OO########X...XX...##O#OO",
"OOOOOOXXOOOOOX.OOOOOOOOOOOOOO####.O##OOOOOO######O.X....O##O#OOO",
"OOOOOOOOOOOXXXOOOOOOOOOOOOOO###O#.OOOOOOO##OOO####....###OOO#OOO",
"OOOOOOOOOOOOOOOOOOOOOOOOOO####OO##OOOOOOOOO##O#####X.OOO####OOOO",
"OOOOOOOOOOO###OOOOOOOOOOOOO#O#OO##OOOOOOOOOOOOOO###..O#OOOOOOOOO",
"OOOOOOOOOOO###OOOOOOOOOOOOO##OOOOXOOOOOOOOOOOOOO###X.OOOOOOOOOOO"
};
