/* XPM */
static char *_12d1ae7db4d414d945fb8622c22c237U4cFMSVIPLGZ29cj[] = {
/* columns rows colors chars-per-pixel */
"64 64 30 1 ",
"  c black",
". c #453345",
"X c #4E4950",
"o c #5A545B",
"O c #5A595B",
"+ c #614961",
"@ c #6C696E",
"# c #706972",
"$ c #7C787E",
"% c #807982",
"& c #857C85",
"* c #847F85",
"= c #98969A",
"- c #9B969D",
"; c #A48391",
": c #9A8FA6",
"> c #A097A3",
", c #BC96A6",
"< c #A59BB0",
"1 c #B8A2AB",
"2 c #BDB6BF",
"3 c #C1A6B2",
"4 c #C4B2BA",
"5 c #C6BABF",
"6 c #C8BAD9",
"7 c #EBBCD0",
"8 c #D1CCD2",
"9 c #F1D0DE",
"0 c #F5DEE8",
"q c #F8E8EF",
/* pixels */
"&&&&&&&&&&&:&.&&&&&&&&&&&&&&&&&&<.&&&&&& &&&&&<<.<<<&&&&&&&&&&&&",
"&&&&&&&&&&&:&.&&&&&&&&&&&&&&&&&<<.&&&&&  &&&&&<<.&<<<&&&&&&&&&&&",
"&&&&&&&&&&::..<&&&&<<<&&&&&&&&<<+.&&&&  &&&&&<<...66<&&&&&&&&&&&",
":::&&&&&&&:&.+<&&&&<<<&&&&&&<<<...&&&   &&&<<<..++666<<<<<&&&&&&",
"&:&:&&&&&:::..<<<&&&<<<&&&&&<..+.&&  0 <<<<<...&..+&666<<<&&&&&&",
":&:&::<<<::.+.<<<<&&&&&&&&&<<..+.&  0  &&&...+&&.++..6666<<&&&&&",
"&:&&::<::&.+++..<<&&&&&&&&<<..+.   0  &<<<<<<<<<..+....<<&<&&&&&",
"&&+.++&...++.+++<<<<<&&<<<<<+..  09 &&<<<<<<<<<<<&..++.....++..+",
"&&&:::<<:<<<&......++&&<+++...  09  &&&&&&&&&&&<<<<..+.+++<<<<<&",
"&:::::<<<&<<&&<<<<::&.......&& 09  &&&&&&&&&&&&&&<<&..++.<<&<&&&",
"&&&&<<<&&&&&&&&<<<:<<<:<<<&&&  99 &&&&&&&&&&&&&&&&<<<...<<&&&&&&",
"&&&&<<<:&&&&&&&&&&&&&&:&:<<:& 99  &&&&&&&&&&&<&<&&&&<<&<<&&&&&&&",
"&&&&<<:&<<&&&&&&&&&&&&&&&:<<. 99 &&<<&&<&<&<&&&&&&&&<<<&&&&&&&&&",
"&&::<&<<&&&&&&&&&&&&&&&&&&<<< 99 &&&&&&&&<&&<<<<&&&<<<<&&&&&&&&&",
"&&&:&<<:&&&&&&&&&&&&&&&&&&:<< 99 &<<<<<&<<<<<<<&<<&<<<<&&<<<<&&&",
"&&&&&&&&&&&&&&&&&&&&&&&&&&&:6 99 <<<<<<<<<<<<&<<&&&&<<<<<<..&&&&",
"&&&&&&&&&&&&&&&&&&&&&&&&&&:&6 79  .....<<66<<&<<<<&......&&&&&&&",
"&&+&&&&&&&&&&&&&&&&&&&&&&&&&6  79  +.+..+&6666<<<+..&&<<<&&&&&&&",
"&&+:&&&&&&&&&&&&&&&&&&&&&:::66 799 .+.+....<<<&.++<<<<&&&&&&&&&&",
"&&.:&&&&&&&&&&&&&&<::&&::::666  79  ...........+&<<&&&&&&&&&&&&&",
"&&.::&&&&&&&&&&&&&::6<&:6<666:.  79 ....<<<<6<&&&<&&&&&&&&&&&&&&",
"&&..:::&&&&&&&&&&&&:66666666:&++ 79 <<&&<<&<6666&<<&&&&&&&&&&&&&",
"&&&..:<<<<<<:::<::::<<666666.        &&&&&&&&<66<&&<&&&&&&&&&&&&",
"&&&..&:::<<:<<<66<6666:&::&&  -----   &&&&&&&<66<&&<<&&&&&&&&&&&",
"&&&.......++.<<<666666&..    $$@@@@$@   &&&<<<<66+.<<&&&&&&&&&&&",
"&&..++++.++++++++.......   @@#####@###   &&<<&&<66.&<<&&&&&&&&&.",
"&..+....<<<66666+++++++  #####O#@###@### <<<&&&<<<+..<<<<<<<<<+.",
"..++...<<<<<6666..&&     ###@#@#@#@####      &&<<&.+............",
".....<<<&&<<<<&<+.&  777  ####@@$@###@  777   <<&+.+.&&&&&&&&&&.",
"&&&&&&&&&&&&&&&<+.  77777  #@#@---#@## 777777  +....+&&&&&&&&&&+",
"&&&&&&&&&&&&&&&<<. 7777777 @##=----### 7799777 ..&&&&&&&&+<<&&&&",
"&&&&&&&&&&&&&&&&&  7999977 #---------# 7790097  &&&&&&&&&.&&&&&&",
"&&&&&&&&&&&&&&&&* ,79qqq97             7700007, &&&&&&&&+.<&&&&&",
"&&&&&&&&&&&&&&&&* ,790qq70,           7790qq07, &&&&&&++..<<&&&&",
"&&&&&&&&&&&&&&&&& ,,9qqq4  >>22888822>  35qqq7, &&&&&&&+.<<&&&&&",
"&&&&&&&&&&&&&&&&& ,,7096  22>>228822>>>  5qq0,, &&&&&&&+.<<&&&&&",
"&&&&&&&&&&&&&&&&& ,,794  2>>>>>>22>>>>22  50,,, <&&&&&&+.<<&<&&&",
"<<&&&&&&&&&&&&&..   ,34 2>>>>>>>>>>>>>>22 5,,   <&&&&&&&.<<<&&&&",
"<<<<&&&<&<<<&...  #  ,  2>>>>>>>>>>>>>>>2  ,  #  &&&&&&&..<<<&&&",
"<<<<<<<<<<<...++ ###   >>>>>>>>>>>>>>>>>>>   ### &&&&&&&&..<<&&&",
"<<<.........++.. ##oX >>>>>>>>>>>>>>>>>>>>> #### &&&&&&&+...<<<&",
"+..+.++..+.....  ##%# >>>>>22>>>>>>>22>>>6> >>>#  &&&&++.....+<<",
"+.+.++.+..+...< ##%%# >>>>2  >>>>>>>  2>>>> >>>># &&&++...&<&&++",
"&&............< #%%%# >>>>   >>>>>>>   >>>> >>>># .++...&&<&<&&&",
"&&&&&&&<<&...&< #%%%# >>>>  >>>>>>>>>  >>>> >>>># ....&&<<&&<&<&",
"&&&&&&&<<&&..<< #%%%# >>>>>>>>>88>>>>>>>>>  >>>># ....<<&&<&&&<&",
"&&&<<<<<<<&+++. #%%%#  >>>>>>>111112>>>>>> >>>>># ..&&&&&&<&&&&&",
"&&&&&&<&&&&&&&. #%%%%# >>>>>>21   12>>>>>  >>>>># +.&&&&&&&&&&&&",
"&&&&&&&&&&&&&&+ #&%%%#  >>>>21     12>>>> >>>>>># +.<<&&&&&&&&&&",
"&&&&&&&&&&&&&&& #$%%%%##  >2111   1122>   >>>>>># .+<<&&&&&&&&&&",
"&&&&&&&&&&&&&&& #o%%%>>##  21 11 11 22  >>>>>>>># <+<<&&&&&&&&&&",
"&&&&&&&&&<&&&&&& #%%%>>>>###>>  >  >>>>>>>>>>>># <<.<<<&&&&&&&&&",
"&&&&&&&&&&&&&&&< #&>>>>>>######>>>>>>>>>>>>>>>># <<.+<<<&&&&&&&&",
"&&&&&&&&&&&&&&<<. >>>>>>>>>>####>>>>>>>>>>>>>># <<<..<<<&<&&&&&&",
"&&<<&&&&&&&&&&<&. #>>>>>>>>>>>>>>>>>>>>>>>>>>># <<&...<<<<<<<<<&",
".+<<<<&&&&&&&&<<.<  >>>>>>>>>>>>>>>>>>>>>>>>>  <<......<<<<<....",
"+..&<<<<<&&&&<<&.<& >>>>>>@2>>:->>>>>>>>>>>>> ....++........+&<&",
".&&+<<<<<<<<<<<+&&& >>>>>> $2>>=>>>=2 #>>>>>  <++.+.+.....&<<<<&",
"&&&&++&&<<<<<<.&&&&  >>>>@ =**$;&$&$= ##>>>> <<<<+...++...<<&<&&",
"&&&&&&++&&&&&+.&&&&& >>>>@ ;**$;;$;$; ##>>>>  <<<&.+....&<<&<&&&",
"&&&&&&&&&&&+++&&%*&  >>>##  ;;;;;;;;  ###>>>> <<<<....<<<&&&<&&&",
"&&&&&&&&&&&&&&&&**& >>>>##             ###>>> <<<<<+.&&&<<<<&&&&",
"&&&&&&&&&&&<<<&&%*  #####  <&<&&<<**$;  #####  &<<<..&<&&&&&&&&&",
"&&&&&&&&&&&<<<&&$; ;;;;;;   <&&&&+%**   ;;;;;; &<<<+.&&&&&&&&&&&"
};
