/* XPM */
static char *b1a119227a99478aace9b96eb7b167f2w4TAq2dZlGydOFNP[] = {
/* columns rows colors chars-per-pixel */
"64 64 16 1 ",
"  c black",
". c #40342B",
"X c #524438",
"o c #5C4A39",
"O c #453345",
"+ c #6D5C4D",
"@ c #785C43",
"# c #614961",
"$ c #AB794D",
"% c #B59070",
"& c #857C85",
"* c #8C8681",
"= c #9A8FA6",
"- c #A59BB0",
"; c #E0B18D",
": c white",
/* pixels */
"&&&&oooooo&=&O&&&&&&&&&&&&&&&&&&-O&&&&&&&&&&&&--O---&&oooooo&&&&",
"&&&&ooooooo=&O&&&&&&&&&&&&&&&&&--O&&&&&&&&&&&&--O&---ooooooo&&&&",
"&&&&oo;;;;oooooooooooooooooooooooooooooooooooooooooooo;;;;oo&&&&",
"===&oo;;;;oooooooooooooooooooooooooooooooooooooooooooo;;%@oo&&&&",
"&=&=  ;:*%%;;;;;;;%%%%%$$$$$$$$$$$$$$$$$$$%%%%;;;;;;;;;:*%  &&&&",
"=&=&  %**%;%%$$$$$$%%%%%%%%%%$$$$$$$$$$$$$$%%%%%%%;;;%%**%  &&&&",
"&=&&  %  %%%$$$$$$$%%%%%%%%$$$$$$$$$$$$$$$$$$$$$%%%%%%%  %  &&&&",
"&&#O  ;;;%%%$$$$$$$$$$$$$$$$$$$$$$$$$$$$$$$$$$$$$$%%%%%;;%  #OO#",
"&&&=  @@@@%%%$$$$$$$$$$$$$$$$$$$$$$$$$$$$$$$$$$$$%%%;;;;;;  ---&",
"&===ooo    o%%%%%%%$$$$$$$$$$$$$$$$$$$$$$$$$$%%%%%%oo    ooo-&&&",
"&&&&--oo@@%ooooooo%;;;;%%;;;;;;;;;;;;;;;%%%%%ooooooo;;;%oo&&&&&&",
"&&&&--oo:*%$$$$$$$ooooooooooooooooooooooooooo$$$$$%%%:*%oo&&&&&&",
"&&&ooooo**%$$$$$$$%%%%%%%%%%$$$$$$$$$$$$$$$$$$$$$%;%%**%ooooo&&&",
"&&=oo@@@  $$$$$$$$%%%%$$$$$$$$$$$$$$$$$$$$$$$$$$%%%%%  %;@@oo&&&",
"&&&  @@%%%%$$$$$$$$$$$$$$$$$$$$$$$$$$$$$$$$$$$%%%%%%%%%%;%@  &&&",
"&&&  ;;;%%%%%$$$$$$$$$$$$$$$$$$$$$$$$$$$$$$$$$$%%%%%%%%%;;%  &&&",
"&&&  ;;;%%%%%%%$$$$$$$$$$$$$$$$$$$$$$$$$$$$$$$%%%%%%;;;;;;;  &&&",
"&&#      oooo%%%%%;;;;$$$$$$$$%%;;;;;$$$$$$$$$%%%%%ooooo     &&&",
"&&#  @@@%%%%oooooooooooooo$$$$oooooooooooooooooooooo;;;;%@@  &&&",
"&&O  @:*;;;%%%%%$$$$$$$$$$$$$$$$$$$$$$$$$$$$$$$$$$$$%%%%:*@  &&&",
"&&Ooo%**%%%%%%%%$$$$$$$$$$$$$$$$$$$$$$$$$$$$$$$$$$%%%%%%**%  &&&",
"&&Ooo;  %%%%$$$$$$$$$$$$$$$$$$$$$$$$$$$$$$$$$$$$$$%%%%%%  ;oo&&&",
"&&&oo;;;%%%%%$$$$$$$$$$$$$$$$$$$$$$$$$$$$$$$$%%%%%%%%%%;%;;oo&&&",
"&ooo ;;;;;;%%%%$$$$$$$$$$$$$$$$$$$$$$$$$$$$$$$$%%;;;;;;;;;; ooo&",
"&oo     ;oooooo%%%;;;;;;;$$$$$$%%%%%%%$$$;;;;;;oooooooo      oo&",
"&oo@@@%%%%%%%%$oooooooooo$$$$$$$$$$$$$ooooooooo$$$$$$$%%%@@@@ooO",
"&oo@::%%%%%$$$$$$$$$$$$$$$$$$$$$$$$$$$$$$$$$$$$$$$$$$$%%%%:*@ooO",
"Ooo%**%%%%$$$$$$$$$$$$$$$$$$$$$$$$$$$$$$$$$$$$$$$$%%%%%%%%**;ooO",
"Ooo%  %;;;$$$$$$$$$$$$$$$$$$$$$$$$$$$$$$$$$$$$$$$$%%%%%%%%  ;ooO",
"&oo;;;;;;%%%%%%$$$$$$$$$$$$$$$$$$$$$$$$$$$$$$$$$%%%;;;;%;;;;;oo#",
"&  +++++++ooo%%%%%$$$$$$$$$$$$$$$$$$$$$$$$%%%%%%%ooo+++++++++  &",
"&  +++ooooooooooo%%%%%%%%;;;;;;;;;;;;%%%%%%oooooooooooooo++++  &",
"&  ++ooooooooooooo++++++oooooooo+++++++oooooooooooooooooo++++  &",
"&  +oooooooooooooo+++++++ooooooooooo+++ooooooooooooooo+++++++  &",
"&  ooooooooooooooooo++++oooooooooooo+++ooooooooooooooo+++++++  &",
"&    ooooooooooooooo++++ooooooooooo+++++oooooooooooooo+++++    &",
"&    ooooooooooo+++++++++ooooooooo+++++++ooooooooooo+++++++    &",
"--&&&                                                      -&&&&",
"----&  ......                                      ....... --&&&",
"-----  @@ooo.  ......  ................  ........  oooo... --&&&",
"---OO  @@@@o@  ......  ....ooooooo.....  oo......  @ooooo  O---&",
"#OO#O  @@@@@@  ..XXoo  @oooooooooooooo.  oooooo..  @@oooo  OO#--",
"#O#O#  @@@@@@  .Xoooo  @oooooooooooo@@o  @@oooo..  @@oooo  -&&##",
"&&OOO  @oo@@@  .ooooo@  @oooooooooo@@@  @@ooooo..  @@oooo  &-&&&",
"&&&&&  oooo@@o  oooo@@  @ooooooooo@@@o  @@ooooo..  @ooooo  &-&-&",
"&&&&&&&  ooooo  ooo@@@@  @ooooooo@@@@  @@ooooooo  @@ooo  &-&&&-&",
"&&&----  ooooo  ooo@@@@  @@@ooo@@@@@@  @@ooooooo  @@@oo  &-&&&&&",
"&&&&&&-  oooo@  ooo@@@@@  @@ooo@@@@@  oooooooooo  @@@@o  &&&&&&&",
"&&&&&&&  @ooo@   ooo@@@@  @@ooo@@@@@  oooooooooo  @@@@o  &&&&&&&",
"&&&&&&&  @ooo@   .oo@o@@  .@ooo@@@@.  ooooooooo   @@@@o  &&&&&&&",
"&&&&&&&  @ooo@   ...oo@@  ..ooo@@@..  ooooooo..   @@@@o  &&&&&&&",
"&&&&&&&  @ooo@   ......o  ..........  .........   @@@@o  &&&&&&&",
"&&&&&&&  @ooo@    .....               .........   @@ooo  &&&&&&&",
"&&&&&&&  @ooo@                                    @oooo  -&&&&&&",
"&&--&    @oo@@  oo@@@ooooooooo@@@@@ooooooo@@@@oo  ooooo    ----&",
"O#-- $   @oo@@  oo@@@ooooooo@@@@@@@@ooooooo@@ooo  ooooo   $ OOOO",
"#OO $$$         ooooooooo@@@@@@@@@@@@oooooo@@ooo         $$$ &-&",
"O&  $$$$$$$$$$$$$$$$$$$$$$$$$$$$$$$$$$$$$$$$$$$$$$$$$$$$$$$$  -&",
"&&  $:*$$@@@@@@oooooooooooooooooooooooooooooooooo@@@@@@$$:*$  &&",
"&&  @**@@@@@@ooooooooooooooooooooooooooooooooooooo@@@@@@@**@  &&",
"&&  @  @@                                              @@  @  &&",
"&&  @@@@@                                              @@@@@  &&",
"&&       &&---&&&&&&&&&&&&&-&-&&--&&&&&&&&&&&&&&---OO&-       &&",
"&&       &&---&&&&&&&&&&&&&--&&&&#&&&&&&&&&&&&&&---#O&&       &&"
};
